<?xml version="1.0" encoding="utf-8"?>
<!-- Generator: Adobe Illustrator 21.0.0, SVG Export Plug-In . SVG Version: 6.00 Build 0)  -->
<svg version="1.1" id="Layer_1" xmlns="http://www.w3.org/2000/svg" xmlns:xlink="http://www.w3.org/1999/xlink" x="0px" y="0px"
	 viewBox="0 0 50 50" style="enable-background:new 0 0 50 50;" xml:space="preserve">
<style type="text/css">
	.st0{fill:#ED1C24;}
</style>
<path class="st0" d="M25,42.9c-5.8,0-11.5-0.1-17.3,0C4.5,43,1.8,40.6,1.8,37c0-7.6,0-15.3,0-22.9c0-3.1,2.2-5.4,5.3-5.6
	c0.2,0,0.4,0,0.6,0c11.5,0,23,0,34.5,0c3.6,0,5.9,2.3,5.9,5.9c0,7.6-0.1,15.2,0,22.8c0,3.4-2.8,5.9-5.8,5.8
	C36.6,42.8,30.8,42.9,25,42.9 M4.9,11.8c0.2,0.2,0.4,0.4,0.5,0.6c5.9,5.9,11.8,11.8,17.7,17.8c1.3,1.3,2.5,1.3,3.7,0
	c4.8-4.8,9.6-9.6,14.4-14.4c1.3-1.3,2.6-2.5,3.9-3.8c-0.8-1-1.8-1.2-2.9-1.2c-5.9,0-11.8,0-17.7,0c-5.6,0-11.2,0-16.8,0
	C6.7,10.7,5.7,10.9,4.9,11.8 M5.4,39.9c0.7,0.6,1.5,0.7,2.4,0.7c11.5,0,22.9,0,34.4,0c0.4,0,0.7,0,1.1-0.1c0.5-0.1,1-0.4,1.5-0.6
	c-4.2-4.1-8.2-8.2-12.4-12.4c-0.2,0.3-0.5,0.6-0.8,0.9c-1.1,1.1-2.2,2.3-3.4,3.4c-1.9,1.8-4.6,1.7-6.5-0.1c-1.2-1.2-2.4-2.4-3.7-3.7
	c-0.2-0.2-0.4-0.3-0.5-0.5C13.5,31.9,9.4,35.9,5.4,39.9 M15.8,26.2C11.9,22.3,8,18.4,4.2,14.6v23.1C8.1,33.8,12,30,15.8,26.2
	 M45.9,37.7V14.5c-3.9,3.9-7.8,7.8-11.8,11.7C38.1,30,42,33.9,45.9,37.7"/>
</svg>
